<svg
   xmlns:svg="http://www.w3.org/2000/svg"
   xmlns="http://www.w3.org/2000/svg"
   version="1.0"
   width="180"
   height="185"
   id="svg2">
  <defs
     id="defs4" />
  <path
     d="M 164.07127,82.212593 C 170.78505,130.12831 140.37851,174.02521 96.156375,180.25907 C 51.93422,186.49294 10.6425,152.70312 3.9287283,104.78742 C -2.7850377,56.871695 27.62149,12.974795 71.84363,6.740931 C 116.06577,0.50706102 157.3575,34.296885 164.07127,82.212593 z "
     style="fill:#000000;fill-opacity:0.19607843;fill-rule:evenodd"
     id="path1367" />
  <g
     transform="matrix(1.601426,-0.225748,0.243128,1.735181,3.772336,16.02837)"
     id="layer1">
    <path
       d="M 49.357798,24.6789 C 49.357798,38.055338 38.390828,48.899084 24.862385,48.899084 C 11.333942,48.899084 0.36697197,38.055338 0.36697197,24.6789 C 0.36697197,11.302462 11.333942,0.45871599 24.862385,0.45871599 C 38.390828,0.45871599 49.357798,11.302462 49.357798,24.6789 z "
       transform="matrix(2.041198,0,0,2.064394,-0.749062,-0.946976)"
       style="fill:#969696;fill-opacity:1;fill-rule:evenodd"
       id="path1306" />
    <path
       d="M -6.880734,14.449541 C -6.880734,16.501608 -8.6058753,18.165137 -10.733945,18.165137 C -12.862015,18.165137 -14.587156,16.501608 -14.587156,14.449541 C -14.587156,12.397474 -12.862015,10.733945 -10.733945,10.733945 C -8.6058753,10.733945 -6.880734,12.397474 -6.880734,14.449541 L -6.880734,14.449541 z "
       transform="matrix(10.38095,0,0,10.76543,161.4286,-105.5555)"
       style="fill:#dcdcdc;fill-opacity:1;fill-rule:evenodd"
       id="path1308" />
    <rect
       width="8"
       height="52"
       x="54"
       y="-76"
       transform="matrix(0,1,-1,0,0,0)"
       style="fill:#969696;fill-opacity:1;fill-rule:evenodd"
       id="rect4988" />
    <rect
       width="8"
       height="52"
       x="38"
       y="-76"
       transform="matrix(0,1,-1,0,0,0)"
       style="fill:#969696;fill-opacity:1;fill-rule:evenodd"
       id="rect4990" />
  </g>
</svg>
